<?xml version="1.0" standalone="no"?>
<!DOCTYPE svg PUBLIC "-//W3C//DTD SVG 20010904//EN"
 "http://www.w3.org/TR/2001/REC-SVG-20010904/DTD/svg10.dtd">
<svg version="1.0" xmlns="http://www.w3.org/2000/svg"
 width="1280.000000pt" height="1280.000000pt" viewBox="0 0 1280.000000 1280.000000"
 preserveAspectRatio="xMidYMid meet">
<metadata>
Created by potrace 1.11, written by Peter Selinger 2001-2013
</metadata>
<g transform="translate(0.000000,1280.000000) scale(0.100000,-0.100000)"
fill="#000000" stroke="none">
<path d="M4760 12368 c-30 -5 -113 -15 -185 -23 -168 -18 -321 -46 -465 -85
-63 -17 -137 -37 -165 -44 -125 -34 -399 -136 -480 -180 -16 -9 -34 -16 -39
-16 -5 0 -17 -6 -25 -13 -9 -7 -50 -28 -91 -47 -97 -43 -320 -180 -362 -222
-10 -10 -23 -18 -29 -18 -13 0 -45 -25 -253 -202 -80 -68 -237 -233 -307 -323
-116 -147 -279 -402 -336 -525 -9 -19 -34 -73 -55 -119 -45 -96 -76 -177 -119
-306 -67 -205 -73 -227 -108 -415 -6 -30 -18 -136 -27 -235 -31 -334 -5 -660
78 -975 10 -41 25 -99 33 -129 18 -71 63 -178 141 -336 63 -128 107 -198 204
-321 96 -123 264 -275 350 -319 19 -9 42 -23 50 -30 24 -21 122 -71 165 -85
22 -7 44 -16 49 -21 6 -5 18 -9 28 -9 11 0 33 -7 49 -16 64 -33 318 -73 468
-74 281 -1 641 93 882 230 41 23 89 51 108 62 70 40 256 225 310 308 87 135
191 358 191 410 0 11 7 34 15 51 21 39 53 215 66 359 13 148 -3 458 -31 590
-57 272 -164 501 -305 652 -277 298 -630 464 -976 460 -214 -2 -484 -65 -634
-147 -33 -18 -85 -46 -115 -63 -106 -57 -135 -74 -155 -91 -11 -10 -49 -37
-85 -61 -36 -24 -75 -53 -87 -63 -11 -10 -32 -17 -45 -15 -22 3 -23 6 -23 93
1 106 18 223 46 320 32 108 108 295 139 340 15 22 37 59 48 82 12 22 25 43 30
45 4 1 30 35 57 73 117 165 362 373 642 546 71 43 356 179 377 179 8 0 17 4
21 9 3 5 20 13 38 17 17 3 45 12 62 19 44 19 185 63 225 70 19 3 73 15 120 25
202 45 306 55 565 55 160 0 272 -5 310 -12 33 -7 98 -20 145 -28 141 -24 298
-69 386 -111 28 -13 56 -24 62 -24 6 0 41 -17 78 -37 36 -21 89 -50 117 -65
27 -15 62 -38 76 -51 14 -13 58 -46 96 -74 125 -91 346 -333 430 -472 6 -9 24
-36 41 -61 17 -25 57 -94 88 -155 32 -60 61 -117 66 -125 15 -25 110 -246 110
-256 0 -6 9 -29 20 -52 11 -22 20 -46 20 -51 0 -6 15 -57 34 -113 43 -134 112
-383 131 -478 8 -41 19 -93 24 -115 20 -82 57 -313 96 -600 15 -115 38 -375
55 -630 13 -194 13 -807 0 -1028 -12 -217 -36 -475 -55 -592 -7 -49 -17 -117
-20 -150 -14 -133 -50 -331 -80 -440 -8 -27 -17 -68 -21 -90 -10 -60 -131
-475 -154 -530 -11 -25 -20 -52 -20 -57 0 -12 -79 -217 -110 -283 -10 -22 -21
-51 -25 -65 -4 -14 -30 -70 -57 -125 -28 -55 -60 -120 -72 -145 -95 -193 -194
-372 -262 -474 -10 -15 -32 -50 -49 -77 -50 -81 -174 -259 -249 -358 -39 -51
-84 -113 -101 -136 -53 -75 -197 -245 -305 -359 -200 -212 -577 -582 -696
-681 -65 -55 -146 -125 -179 -156 -33 -31 -80 -70 -105 -88 -25 -17 -66 -48
-91 -69 -66 -53 -216 -168 -304 -232 -41 -30 -91 -66 -109 -80 -37 -27 -122
-85 -301 -206 -60 -40 -140 -89 -177 -109 -36 -19 -69 -39 -73 -45 -3 -5 -34
-26 -68 -46 -34 -19 -88 -51 -119 -69 -32 -18 -67 -36 -78 -40 -11 -4 -44 -22
-72 -40 -67 -45 -692 -355 -714 -355 -5 0 -31 -11 -59 -24 -27 -13 -84 -38
-125 -56 -41 -18 -112 -50 -157 -72 -46 -21 -88 -38 -95 -38 -7 0 -26 -8 -43
-18 -16 -10 -50 -26 -75 -34 -25 -9 -97 -40 -160 -68 -63 -28 -126 -55 -140
-60 -56 -17 -286 -113 -300 -124 -8 -7 -35 -24 -60 -38 -62 -36 -108 -84 -119
-125 -13 -46 -4 -66 44 -99 35 -24 52 -28 131 -32 63 -3 108 0 145 11 30 8 73
18 97 22 78 13 503 157 842 286 91 34 186 70 211 79 26 9 57 23 70 31 13 9 38
19 54 23 17 4 55 18 85 31 30 13 93 39 140 59 47 19 109 47 137 61 29 14 56
25 59 25 7 0 216 90 289 124 54 26 127 58 215 96 30 13 62 30 71 37 8 7 21 13
28 13 16 0 580 278 602 297 16 13 150 89 224 126 22 11 49 28 60 37 11 9 61
39 110 67 160 89 239 136 268 160 16 13 33 23 39 23 6 0 34 15 62 33 28 19 79
51 114 73 124 77 278 178 316 208 22 17 51 37 65 46 14 8 41 24 59 35 19 11
66 45 106 76 40 31 86 64 102 72 16 8 47 34 69 56 21 23 45 41 51 41 7 0 34
19 61 42 26 23 83 68 126 99 108 81 169 129 188 150 9 10 56 52 105 94 49 43
141 127 205 189 63 61 158 149 210 195 115 103 388 379 438 443 56 72 214 260
237 283 11 11 42 51 70 88 27 37 63 87 81 110 17 23 58 80 90 126 53 75 76
109 150 222 12 19 23 39 23 44 0 5 10 19 21 31 25 26 31 36 78 125 18 35 53
97 77 136 24 40 44 77 44 83 0 6 17 41 38 78 61 109 262 544 262 568 0 5 20
59 46 119 25 61 54 144 66 185 11 41 27 89 36 105 8 17 21 53 28 80 18 73 51
195 63 230 16 50 40 155 57 245 9 47 22 114 29 150 31 143 65 362 76 485 6 72
15 150 20 175 5 25 12 234 15 465 6 432 7 420 -36 835 -52 495 -233 1134 -435
1530 -12 25 -26 56 -30 70 -4 14 -18 39 -31 57 -13 17 -24 34 -24 37 0 7 -101
184 -151 266 -48 77 -56 88 -220 305 -137 181 -436 466 -651 621 -131 94 -453
269 -583 317 -22 8 -71 27 -110 42 -174 67 -197 75 -215 75 -10 0 -29 4 -42 9
-24 9 -121 38 -218 66 -30 8 -77 18 -105 21 -27 3 -66 12 -85 19 -19 8 -75 19
-125 25 -49 6 -103 15 -120 20 -16 5 -75 14 -130 20 -55 5 -163 17 -240 25
-156 17 -603 19 -695 3z"/>
<path d="M10665 11250 c-33 -4 -80 -15 -105 -24 -25 -8 -50 -16 -57 -16 -25 0
-129 -53 -188 -95 -171 -123 -264 -282 -301 -515 -41 -260 46 -517 234 -691
60 -55 101 -82 187 -124 61 -29 144 -60 186 -69 139 -31 389 -11 464 38 11 7
37 19 58 25 21 7 72 39 115 70 83 62 132 116 204 225 31 47 88 186 97 238 16
92 14 284 -4 370 -9 44 -36 115 -67 178 -46 92 -64 117 -146 198 -51 50 -97
92 -103 92 -5 0 -26 11 -47 25 -106 70 -319 100 -527 75z"/>
<path d="M10554 7740 c-114 -30 -225 -93 -306 -174 -80 -80 -100 -109 -147
-216 -43 -96 -49 -117 -62 -220 -39 -306 34 -562 204 -715 121 -109 195 -150
331 -185 118 -30 304 -28 422 4 103 28 185 61 231 94 17 12 35 22 40 22 15 0
116 102 166 168 148 196 188 524 89 742 -32 68 -62 117 -128 200 -84 107 -172
174 -311 234 -119 53 -140 57 -318 61 -113 3 -153 0 -211 -15z"/>
</g>
</svg>
